# 
# Generated by Sweet Home 3D - Sat Mar 02 18:37:28 GMT+01:00 2019
# http://www.sweethome3d.com/
# 
mtllib resteraunt.mtl
g ground_1
usemtl ground_1
v 0.7966321 0.0 -212.2508
v 0.7966321 0.0 367.60565
v 737.41 0.0 367.60565
v 737.41 0.0 -212.2508
vn 0.0 1.0 0.0
vn 0.0 0.0 0.0
f 1//1 2//1 3//1
f 1//1 3//1 4//1
g wall_1_2
usemtl wall_1_2
v 187.5 0.0 -210.25078
v 187.5 0.0 -206.44078
v 733.6 0.0 -206.44078
v 737.41 0.0 -210.25078
vn 0.0 -1.0 0.0
f 8//3 7//3 6//3
f 8//3 6//3 5//3
g wall_1_3
usemtl wall_1_2
v 187.5 0.0 -202.63078
v 729.79 0.0 -202.63078
f 7//3 10//3 9//3
f 7//3 9//3 6//3
g wall_1_4
usemtl wall_1_2
v 187.5 243.84 -206.44078
v 187.5 243.84 -210.25078
v 737.41 243.84 -210.25078
v 733.6 243.84 -206.44078
vn -1.0 0.0 0.0
vn 0.70710677 0.0 0.70710677
vn 0.0 0.0 -1.0
f 5//4 6//4 11//4 12//4
f 7//5 8//5 13//5 14//5
f 8//6 5//6 12//6 13//6
g wall_1_5
usemtl wall_1_2
v 187.5 243.84 -202.63078
v 729.79 243.84 -202.63078
vn 0.0 0.0 1.0
f 6//4 9//4 15//4 11//4
f 9//7 10//7 16//7 15//7
f 10//5 7//5 14//5 16//5
g wall_1_6
usemtl wall_1_2
f 12//1 11//1 14//1
f 12//1 14//1 13//1
g wall_1_7
usemtl wall_1_2
f 11//1 15//1 16//1
f 11//1 16//1 14//1
g wall_2_8
usemtl wall_1_2
v 733.6 0.0 362.77924
v 737.41 0.0 366.58923
f 18//3 17//3 7//3
f 18//3 7//3 8//3
g wall_2_9
usemtl wall_1_2
v 729.79 0.0 358.96924
f 17//3 19//3 10//3
f 17//3 10//3 7//3
g wall_2_10
usemtl wall_1_2
v 737.41 243.84 366.58923
v 733.6 243.84 362.77924
vn -0.70710677 0.0 -0.70710677
vn -0.70710677 0.0 0.70710677
vn 1.0 0.0 0.0
f 8//8 7//8 14//8 13//8
f 17//9 18//9 20//9 21//9
f 18//10 8//10 13//10 20//10
g wall_2_11
usemtl wall_1_2
v 729.79 243.84 358.96924
f 7//8 10//8 16//8 14//8
f 10//4 19//4 22//4 16//4
f 19//9 17//9 21//9 22//9
g wall_2_12
usemtl wall_1_2
f 13//1 14//1 21//1
f 13//1 21//1 20//1
g wall_2_13
usemtl wall_1_2
f 14//1 16//1 22//1
f 14//1 22//1 21//1
g wall_3_14
usemtl wall_1_2
v 4.6199946 0.0 362.77924
v 0.7966321 0.0 366.58923
v 541.49994 0.0 366.58923
v 541.49994 0.0 362.77924
f 26//3 25//3 24//3
f 26//3 24//3 23//3
v 632.93994 0.0 362.77924
v 632.93994 0.0 366.58923
f 17//3 18//3 28//3
f 17//3 28//3 27//3
g wall_3_15
usemtl wall_1_2
v 8.443357 0.0 358.96924
v 541.49994 0.0 358.96924
f 30//3 26//3 23//3
f 30//3 23//3 29//3
v 632.93994 0.0 358.96924
f 19//3 17//3 27//3
f 19//3 27//3 31//3
g wall_3_16
usemtl wall_1_2
v 0.7966321 243.84 366.58923
v 4.6199946 243.84 362.77924
v 541.49994 243.84 366.58923
v 541.49994 243.84 362.77924
vn -0.70586765 0.0 -0.70834374
f 23//11 24//11 32//11 33//11
f 24//7 25//7 34//7 32//7
f 25//10 26//10 35//10 34//10
v 632.93994 243.84 366.58923
v 632.93994 243.84 362.77924
vn 0.70710677 0.0 -0.70710677
f 27//4 28//4 36//4 37//4
f 28//7 18//7 20//7 36//7
f 18//12 17//12 21//12 20//12
v 541.49994 208.28 362.77924
v 541.49994 208.28 366.58923
v 632.93994 208.28 366.58923
v 632.93994 208.28 362.77924
f 38//4 39//4 34//4 35//4
f 39//7 40//7 36//7 34//7
f 40//10 41//10 37//10 36//10
f 41//3 40//3 39//3
f 41//3 39//3 38//3
g wall_3_17
usemtl wall_1_2
v 8.443357 243.84 358.96924
v 541.49994 243.84 358.96924
vn -0.7058676 0.0 -0.70834374
f 29//13 23//13 33//13 42//13
f 26//10 30//10 43//10 35//10
f 30//6 29//6 42//6 43//6
v 632.93994 243.84 358.96924
f 31//4 27//4 37//4 44//4
f 17//12 19//12 22//12 21//12
f 19//6 31//6 44//6 22//6
v 541.49994 208.28 358.96924
v 632.93994 208.28 358.96924
f 45//4 38//4 35//4 43//4
f 41//10 46//10 44//10 37//10
f 46//6 45//6 43//6 44//6
f 46//3 41//3 38//3
f 46//3 38//3 45//3
g wall_3_18
usemtl wall_1_2
f 33//1 32//1 34//1
f 33//1 34//1 35//1
f 37//1 36//1 20//1
f 37//1 20//1 21//1
f 35//1 34//1 36//1
f 35//1 36//1 37//1
g wall_3_19
usemtl wall_1_2
f 42//1 33//1 35//1
f 42//1 35//1 43//1
f 44//1 37//1 21//1
f 44//1 21//1 22//1
f 43//1 35//1 37//1
f 43//1 37//1 44//1
g wall_4_20
usemtl wall_1_2
v 2.8232965 0.0 -212.2508
v 6.61998 0.0 -208.44083
f 48//3 23//3 24//3
f 48//3 24//3 47//3
g wall_4_21
usemtl wall_1_2
v 10.416663 0.0 -204.63086
f 49//3 29//3 23//3
f 49//3 23//3 48//3
g wall_4_22
usemtl wall_1_2
v 2.8232965 243.84 -212.2508
v 6.61998 243.84 -208.44083
vn -0.99999386 0.0 -0.00350123
vn 0.70586765 0.0 0.70834374
vn 0.7083405 0.0 -0.70587087
f 47//14 24//14 32//14 50//14
f 24//15 23//15 33//15 32//15
f 48//16 47//16 50//16 51//16
g wall_4_23
usemtl wall_1_2
v 10.416663 243.84 -204.63086
vn 0.7058676 0.0 0.70834374
vn 0.99999386 0.0 0.00350123
f 23//17 29//17 42//17 33//17
f 29//18 49//18 52//18 42//18
f 49//16 48//16 51//16 52//16
g wall_4_24
usemtl wall_1_2
f 50//1 32//1 33//1
f 50//1 33//1 51//1
g wall_4_25
usemtl wall_1_2
f 51//1 33//1 42//1
f 51//1 42//1 52//1
g wall_5_26
usemtl wall_1_2
v 189.5 0.0 -208.44078
v 189.5 0.0 -212.25078
f 54//3 53//3 48//3
f 54//3 48//3 47//3
g wall_5_27
usemtl wall_1_2
v 189.5 0.0 -204.63078
f 53//3 55//3 49//3
f 53//3 49//3 48//3
g wall_5_28
usemtl wall_1_2
v 189.5 243.84 -212.25078
v 189.5 243.84 -208.44078
vn -0.7083405 0.0 0.70587087
vn 0.0000001 0.0 -1.0
f 47//19 48//19 51//19 50//19
f 53//10 54//10 56//10 57//10
f 54//20 47//20 50//20 56//20
g wall_5_29
usemtl wall_1_2
v 189.5 243.84 -204.63078
vn -0.0000004 0.0 1.0
f 48//19 49//19 52//19 51//19
f 49//21 55//21 58//21 52//21
f 55//10 53//10 57//10 58//10
g wall_5_30
usemtl wall_1_2
f 50//1 51//1 57//1
f 50//1 57//1 56//1
g wall_5_31
usemtl wall_1_2
f 51//1 52//1 58//1
f 51//1 58//1 57//1
g Montant_32
usemtl white
v 541.5 208.28 357.92752
v 541.5 0.0 357.92752
v 541.49994 0.0 367.60568
v 541.49994 208.28 367.60568
v 546.99634 0.0 367.60568
v 546.99634 0.0 361.9516
v 546.99634 202.7858 361.9516
v 546.99634 202.7858 367.60568
v 632.93994 208.28 367.60568
v 632.94 208.28 357.92752
v 628.54285 203.88464 361.9516
v 628.54285 203.88464 357.92752
v 628.54285 0.0 357.92752
v 628.54285 0.0 361.9516
v 632.93994 0.0 367.60568
v 632.94 0.0 357.92752
v 545.8971 203.88464 361.9516
v 545.8971 203.88464 357.92752
v 627.4436 202.7858 361.9516
v 627.4436 0.0 361.9516
v 627.4436 0.0 367.60568
v 627.4436 202.7858 367.60568
v 545.8971 0.0 357.92752
v 545.8971 0.0 361.9516
vn -1.0 0.0 -0.0000001
vn 1.0 0.0 0.0000001
vn 0.0000001 0.0 -1.0
vn -0.0000001 0.0 1.0
f 59//22 60//22 61//22
f 59//22 61//22 62//22
f 63//23 64//23 65//23
f 63//23 65//23 66//23
f 67//1 68//1 59//1
f 67//1 59//1 62//1
f 69//22 70//22 71//22
f 69//22 71//22 72//22
f 68//23 67//23 73//23
f 68//23 73//23 74//23
f 70//3 69//3 75//3
f 70//3 75//3 76//3
f 77//22 78//22 79//22
f 77//22 79//22 80//22
f 81//24 60//24 59//24
f 76//24 81//24 59//24
f 76//24 59//24 68//24
f 70//24 76//24 68//24
f 70//24 68//24 74//24
f 70//24 74//24 71//24
f 81//23 76//23 75//23
f 81//23 75//23 82//23
f 80//25 79//25 73//25
f 80//25 73//25 67//25
f 80//25 67//25 62//25
f 66//25 80//25 62//25
f 66//25 62//25 61//25
f 66//25 61//25 63//25
f 80//3 66//3 65//3
f 80//3 65//3 77//3
f 72//3 71//3 74//3
f 72//3 74//3 73//3
f 61//3 60//3 81//3
f 61//3 81//3 82//3
f 73//3 79//3 78//3
f 73//3 78//3 72//3
f 63//3 61//3 82//3
f 63//3 82//3 64//3
f 69//24 77//24 65//24
f 69//24 65//24 75//24
f 64//24 82//24 75//24
f 64//24 75//24 65//24
f 69//24 72//24 78//24
f 69//24 78//24 77//24
