# MagicaVoxel @ Ephtracy

# group
o 

# material
mtllib watermellonBig2.mtl
usemtl palette

# normals
vn -1 0 0
vn 1 0 0
vn 0 0 1
vn 0 0 -1
vn 0 -1 0
vn 0 1 0

# texcoords
vt 0.884766 0.5
vt 0.900391 0.5

# verts
v 0 2 0
v 0 2 -0.1
v 0 2 -0.3
v 0 2 -0.4
v 0 2 -0.5
v 0 2 -0.6
v 0 2 -0.8
v 0 2 -1
v 0 2.1 -0.1
v 0 2.1 -0.2
v 0 2.1 -0.4
v 0 2.1 -0.5
v 0 2.1 -0.7
v 0 2.1 -0.8
v 0 2.2 0
v 0 2.2 -0.1
v 0 2.2 -0.2
v 0 2.2 -0.3
v 0 2.2 -0.5
v 0 2.3 -0.1
v 0 2.3 -0.2
v 0 2.3 -0.8
v 0 2.3 -1
v 0 2.4 -0.3
v 0 2.4 -0.5
v 0 2.4 -0.9
v 0 2.4 -1
v 0 2.5 0
v 0 2.5 -0.1
v 0 2.5 -0.2
v 0 2.5 -0.4
v 0 2.6 -0.2
v 0 2.6 -0.4
v 0 2.6 -0.5
v 0 2.6 -0.6
v 0 2.6 -0.8
v 0 2.6 -0.9
v 0 2.7 -0.1
v 0 2.7 -0.2
v 0 2.7 -0.3
v 0 2.7 -0.4
v 0 2.7 -0.6
v 0 2.7 -0.7
v 0 2.7 -0.8
v 0 2.7 -0.9
v 0 2.7 -1
v 0 2.8 0
v 0 2.8 -0.2
v 0 2.8 -0.9
v 0 2.8 -1
v 0 2.9 0
v 0 2.9 -0.1
v 0 2.9 -0.8
v 0 2.9 -0.9
v 0 3 0
v 0 3 -0.1
v 0 3 -0.2
v 0 3 -0.3
v 0 3 -0.4
v 0 3 -0.5
v 0 3 -0.6
v 0 3 -0.7
v 0 3 -0.9
v 0 3 -1
v 1 2 0
v 1 2 -0.1
v 1 2 -0.3
v 1 2 -0.6
v 1 2 -0.7
v 1 2 -0.8
v 1 2 -0.9
v 1 2 -1
v 1 2.1 -0.2
v 1 2.1 -0.3
v 1 2.1 -0.4
v 1 2.1 -0.5
v 1 2.1 -0.8
v 1 2.1 -0.9
v 1 2.1 -1
v 1 2.2 -0.7
v 1 2.2 -0.8
v 1 2.3 -0.6
v 1 2.3 -0.7
v 1 2.3 -0.9
v 1 2.3 -1
v 1 2.4 -0.1
v 1 2.4 -0.2
v 1 2.4 -0.3
v 1 2.4 -0.4
v 1 2.4 -0.5
v 1 2.5 0
v 1 2.5 -0.1
v 1 2.5 -0.2
v 1 2.5 -0.3
v 1 2.5 -0.7
v 1 2.5 -0.8
v 1 2.5 -0.9
v 1 2.6 -0.3
v 1 2.6 -0.4
v 1 2.6 -0.5
v 1 2.6 -0.6
v 1 2.7 -0.1
v 1 2.7 -0.2
v 1 2.7 -0.3
v 1 2.7 -0.4
v 1 2.7 -0.9
v 1 2.7 -1
v 1 2.8 0
v 1 2.8 -0.2
v 1 2.8 -0.6
v 1 2.8 -0.7
v 1 2.8 -0.8
v 1 2.8 -1
v 1 2.9 -0.1
v 1 2.9 -0.3
v 1 2.9 -0.4
v 1 2.9 -0.7
v 1 2.9 -0.8
v 1 3 0
v 1 3 -0.1
v 1 3 -0.3
v 1 3 -0.5
v 1 3 -0.8
v 1 3 -1
v 0 2 0
v 0 2.2 0
v 0 2.5 0
v 0 2.8 0
v 0 2.9 0
v 0 3 0
v 0.1 2 0
v 0.1 2.2 0
v 0.1 2.5 0
v 0.1 2.8 0
v 0.1 2.9 0
v 0.2 2 0
v 0.2 2.2 0
v 0.2 2.3 0
v 0.2 3 0
v 0.3 2 0
v 0.3 2.1 0
v 0.3 2.3 0
v 0.3 2.4 0
v 0.3 2.6 0
v 0.3 3 0
v 0.4 2.1 0
v 0.4 2.3 0
v 0.4 2.4 0
v 0.4 2.6 0
v 0.4 2.8 0
v 0.4 3 0
v 0.5 2 0
v 0.5 2.3 0
v 0.5 2.6 0
v 0.5 2.8 0
v 0.5 3 0
v 0.6 2 0
v 0.6 2.1 0
v 0.6 2.5 0
v 0.6 2.6 0
v 0.6 2.7 0
v 0.7 2.1 0
v 0.7 2.2 0
v 0.7 2.4 0
v 0.7 2.5 0
v 0.7 2.7 0
v 0.7 2.8 0
v 0.7 2.9 0
v 0.7 3 0
v 0.8 2 0
v 0.8 2.2 0
v 0.8 2.4 0
v 0.8 2.6 0
v 0.8 2.7 0
v 0.8 2.9 0
v 0.9 2.2 0
v 0.9 2.4 0
v 0.9 2.5 0
v 0.9 2.7 0
v 0.9 2.8 0
v 0.9 3 0
v 1 2 0
v 1 2.5 0
v 1 2.8 0
v 1 3 0
v 0 2 -1
v 0 2.3 -1
v 0 2.4 -1
v 0 2.7 -1
v 0 2.8 -1
v 0 3 -1
v 0.1 2 -1
v 0.1 2.2 -1
v 0.1 2.3 -1
v 0.1 2.4 -1
v 0.1 2.7 -1
v 0.1 2.8 -1
v 0.1 3 -1
v 0.2 2 -1
v 0.2 2.2 -1
v 0.2 2.4 -1
v 0.2 3 -1
v 0.3 2 -1
v 0.3 2.2 -1
v 0.3 2.4 -1
v 0.3 2.7 -1
v 0.4 2 -1
v 0.4 2.2 -1
v 0.4 2.4 -1
v 0.4 2.7 -1
v 0.4 2.9 -1
v 0.4 3 -1
v 0.5 2 -1
v 0.5 2.1 -1
v 0.5 2.2 -1
v 0.5 2.4 -1
v 0.5 2.5 -1
v 0.5 2.8 -1
v 0.5 2.9 -1
v 0.5 3 -1
v 0.6 2.1 -1
v 0.6 2.2 -1
v 0.6 2.4 -1
v 0.6 2.5 -1
v 0.6 2.6 -1
v 0.6 2.8 -1
v 0.6 2.9 -1
v 0.7 2 -1
v 0.7 2.2 -1
v 0.7 2.4 -1
v 0.7 2.6 -1
v 0.7 2.9 -1
v 0.7 3 -1
v 0.8 2.2 -1
v 0.8 2.6 -1
v 0.8 2.8 -1
v 0.8 3 -1
v 0.9 2.1 -1
v 0.9 2.2 -1
v 0.9 2.3 -1
v 0.9 2.6 -1
v 0.9 2.7 -1
v 0.9 2.8 -1
v 1 2 -1
v 1 2.1 -1
v 1 2.3 -1
v 1 2.7 -1
v 1 2.8 -1
v 1 3 -1
v 0 2 0
v 0.1 2 0
v 0.2 2 0
v 0.3 2 0
v 0.5 2 0
v 0.6 2 0
v 0.8 2 0
v 1 2 0
v 0 2 -0.1
v 0.1 2 -0.1
v 0.2 2 -0.1
v 0.3 2 -0.1
v 0.5 2 -0.1
v 0.6 2 -0.1
v 0.8 2 -0.1
v 1 2 -0.1
v 0 2 -0.3
v 0.1 2 -0.3
v 0.3 2 -0.3
v 0.7 2 -0.3
v 0.9 2 -0.3
v 1 2 -0.3
v 0 2 -0.4
v 0.1 2 -0.4
v 0 2 -0.5
v 0.1 2 -0.5
v 0 2 -0.6
v 0.1 2 -0.6
v 0.9 2 -0.6
v 1 2 -0.6
v 0.3 2 -0.7
v 0.7 2 -0.7
v 0.9 2 -0.7
v 1 2 -0.7
v 0 2 -0.8
v 0.1 2 -0.8
v 0.9 2 -0.8
v 1 2 -0.8
v 0.2 2 -0.9
v 0.3 2 -0.9
v 0.4 2 -0.9
v 0.5 2 -0.9
v 0.7 2 -0.9
v 1 2 -0.9
v 0 2 -1
v 0.1 2 -1
v 0.2 2 -1
v 0.3 2 -1
v 0.4 2 -1
v 0.5 2 -1
v 0.7 2 -1
v 1 2 -1
v 0 3 0
v 0.2 3 0
v 0.3 3 0
v 0.4 3 0
v 0.5 3 0
v 0.7 3 0
v 0.9 3 0
v 1 3 0
v 0 3 -0.1
v 0.2 3 -0.1
v 0.3 3 -0.1
v 0.4 3 -0.1
v 0.5 3 -0.1
v 0.7 3 -0.1
v 0.9 3 -0.1
v 1 3 -0.1
v 0 3 -0.2
v 0.1 3 -0.2
v 0 3 -0.3
v 0.1 3 -0.3
v 0.3 3 -0.3
v 0.7 3 -0.3
v 0.9 3 -0.3
v 1 3 -0.3
v 0 3 -0.4
v 0.1 3 -0.4
v 0 3 -0.5
v 0.1 3 -0.5
v 0.9 3 -0.5
v 1 3 -0.5
v 0 3 -0.6
v 0.1 3 -0.6
v 0 3 -0.7
v 0.1 3 -0.7
v 0.3 3 -0.7
v 0.7 3 -0.7
v 0.9 3 -0.8
v 1 3 -0.8
v 0 3 -0.9
v 0.1 3 -0.9
v 0.2 3 -0.9
v 0.4 3 -0.9
v 0.5 3 -0.9
v 0.7 3 -0.9
v 0.8 3 -0.9
v 0.9 3 -0.9
v 0 3 -1
v 0.1 3 -1
v 0.2 3 -1
v 0.4 3 -1
v 0.5 3 -1
v 0.7 3 -1
v 0.8 3 -1
v 1 3 -1

# faces
f 9/2/1 2/2/1 1/2/1
f 9/1/1 3/1/1 2/1/1
f 10/1/1 3/1/1 9/1/1
f 11/2/1 4/2/1 3/2/1
f 11/1/1 5/1/1 4/1/1
f 12/2/1 6/2/1 5/2/1
f 12/1/1 5/1/1 11/1/1
f 13/1/1 7/1/1 6/1/1
f 14/2/1 8/2/1 7/2/1
f 14/1/1 7/1/1 13/1/1
f 15/2/1 10/2/1 9/2/1
f 15/2/1 9/2/1 1/2/1
f 16/2/1 10/2/1 15/2/1
f 17/1/1 3/1/1 10/1/1
f 17/2/1 10/2/1 16/2/1
f 18/2/1 11/2/1 3/2/1
f 18/1/1 3/1/1 17/1/1
f 18/2/1 12/2/1 11/2/1
f 19/2/1 6/2/1 12/2/1
f 19/2/1 12/2/1 18/2/1
f 20/2/1 18/2/1 17/2/1
f 20/1/1 16/1/1 15/1/1
f 20/2/1 17/2/1 16/2/1
f 21/2/1 18/2/1 20/2/1
f 22/2/1 8/2/1 14/2/1
f 22/2/1 14/2/1 13/2/1
f 23/2/1 8/2/1 22/2/1
f 24/1/1 19/1/1 18/1/1
f 24/2/1 18/2/1 21/2/1
f 25/2/1 6/2/1 19/2/1
f 25/1/1 19/1/1 24/1/1
f 26/1/1 23/1/1 22/1/1
f 27/1/1 23/1/1 26/1/1
f 28/1/1 21/1/1 20/1/1
f 28/1/1 20/1/1 15/1/1
f 29/1/1 21/1/1 28/1/1
f 30/2/1 24/2/1 21/2/1
f 30/1/1 21/1/1 29/1/1
f 30/2/1 25/2/1 24/2/1
f 31/2/1 25/2/1 30/2/1
f 32/1/1 30/1/1 29/1/1
f 32/1/1 31/1/1 30/1/1
f 33/2/1 25/2/1 31/2/1
f 33/1/1 31/1/1 32/1/1
f 34/2/1 6/2/1 25/2/1
f 34/2/1 25/2/1 33/2/1
f 35/1/1 13/1/1 6/1/1
f 35/2/1 6/2/1 34/2/1
f 36/2/1 22/2/1 13/2/1
f 36/1/1 26/1/1 22/1/1
f 37/2/1 27/2/1 26/2/1
f 37/1/1 26/1/1 36/1/1
f 38/2/1 29/2/1 28/2/1
f 38/1/1 32/1/1 29/1/1
f 39/2/1 34/2/1 33/2/1
f 39/1/1 32/1/1 38/1/1
f 39/2/1 33/2/1 32/2/1
f 40/2/1 34/2/1 39/2/1
f 41/2/1 34/2/1 40/2/1
f 42/1/1 13/1/1 35/1/1
f 42/1/1 35/1/1 34/1/1
f 43/2/1 37/2/1 36/2/1
f 43/1/1 13/1/1 42/1/1
f 43/2/1 36/2/1 13/2/1
f 44/2/1 37/2/1 43/2/1
f 45/2/1 27/2/1 37/2/1
f 45/2/1 37/2/1 44/2/1
f 46/2/1 27/2/1 45/2/1
f 47/2/1 38/2/1 28/2/1
f 47/2/1 40/2/1 39/2/1
f 47/2/1 39/2/1 38/2/1
f 48/2/1 40/2/1 47/2/1
f 49/1/1 46/1/1 45/1/1
f 49/2/1 45/2/1 44/2/1
f 50/1/1 46/1/1 49/1/1
f 51/1/1 48/1/1 47/1/1
f 52/1/1 48/1/1 51/1/1
f 53/1/1 44/1/1 43/1/1
f 53/2/1 49/2/1 44/2/1
f 53/2/1 50/2/1 49/2/1
f 54/2/1 50/2/1 53/2/1
f 55/2/1 52/2/1 51/2/1
f 56/1/1 48/1/1 52/1/1
f 56/2/1 52/2/1 55/2/1
f 57/2/1 40/2/1 48/2/1
f 57/1/1 48/1/1 56/1/1
f 58/1/1 41/1/1 40/1/1
f 58/2/1 40/2/1 57/2/1
f 59/2/1 34/2/1 41/2/1
f 59/1/1 41/1/1 58/1/1
f 60/1/1 42/1/1 34/1/1
f 60/2/1 34/2/1 59/2/1
f 61/2/1 43/2/1 42/2/1
f 61/1/1 42/1/1 60/1/1
f 62/1/1 53/1/1 43/1/1
f 62/2/1 43/2/1 61/2/1
f 62/1/1 54/1/1 53/1/1
f 63/2/1 50/2/1 54/2/1
f 63/1/1 54/1/1 62/1/1
f 64/2/1 50/2/1 63/2/1
f 66/1/2 67/1/2 73/1/2
f 67/2/2 68/2/2 74/2/2
f 73/1/2 67/1/2 74/1/2
f 74/2/2 68/2/2 75/2/2
f 75/2/2 68/2/2 76/2/2
f 69/2/2 70/2/2 77/2/2
f 70/1/2 71/1/2 77/1/2
f 71/2/2 72/2/2 78/2/2
f 77/1/2 71/1/2 78/1/2
f 78/2/2 72/2/2 79/2/2
f 69/2/2 77/2/2 80/2/2
f 68/1/2 69/1/2 80/1/2
f 77/2/2 78/2/2 80/2/2
f 80/2/2 78/2/2 81/2/2
f 76/2/2 68/2/2 82/2/2
f 68/1/2 80/1/2 82/1/2
f 80/1/2 81/1/2 82/1/2
f 82/1/2 81/1/2 83/1/2
f 78/1/2 79/1/2 84/1/2
f 81/2/2 78/2/2 84/2/2
f 84/1/2 79/1/2 85/1/2
f 65/2/2 66/2/2 86/2/2
f 66/1/2 73/1/2 86/1/2
f 73/2/2 74/2/2 87/2/2
f 86/1/2 73/1/2 87/1/2
f 74/2/2 75/2/2 87/2/2
f 87/2/2 75/2/2 88/2/2
f 75/1/2 76/1/2 89/1/2
f 88/2/2 75/2/2 89/2/2
f 82/2/2 83/2/2 90/2/2
f 89/1/2 76/1/2 90/1/2
f 76/2/2 82/2/2 90/2/2
f 87/2/2 88/2/2 91/2/2
f 65/2/2 86/2/2 91/2/2
f 86/2/2 87/2/2 91/2/2
f 91/2/2 88/2/2 92/2/2
f 92/2/2 88/2/2 93/2/2
f 88/1/2 89/1/2 94/1/2
f 93/2/2 88/2/2 94/2/2
f 83/1/2 81/1/2 95/1/2
f 90/2/2 83/2/2 95/2/2
f 89/2/2 90/2/2 95/2/2
f 84/2/2 85/2/2 96/2/2
f 95/1/2 81/1/2 96/1/2
f 81/2/2 84/2/2 96/2/2
f 96/2/2 85/2/2 97/2/2
f 94/1/2 89/1/2 98/1/2
f 93/1/2 94/1/2 98/1/2
f 89/2/2 95/2/2 99/2/2
f 98/1/2 89/1/2 99/1/2
f 95/2/2 96/2/2 99/2/2
f 99/2/2 96/2/2 100/2/2
f 100/2/2 96/2/2 101/2/2
f 92/2/2 93/2/2 102/2/2
f 91/1/2 92/1/2 102/1/2
f 93/1/2 98/1/2 103/1/2
f 102/2/2 93/2/2 103/2/2
f 98/2/2 99/2/2 104/2/2
f 103/1/2 98/1/2 104/1/2
f 99/2/2 100/2/2 104/2/2
f 104/2/2 100/2/2 105/2/2
f 97/2/2 85/2/2 106/2/2
f 96/1/2 97/1/2 106/1/2
f 106/2/2 85/2/2 107/2/2
f 91/1/2 102/1/2 108/1/2
f 102/1/2 103/1/2 108/1/2
f 103/2/2 104/2/2 109/2/2
f 108/1/2 103/1/2 109/1/2
f 101/2/2 96/2/2 110/2/2
f 100/1/2 101/1/2 110/1/2
f 110/2/2 96/2/2 111/2/2
f 106/1/2 107/1/2 112/1/2
f 111/2/2 96/2/2 112/2/2
f 96/1/2 106/1/2 112/1/2
f 112/1/2 107/1/2 113/1/2
f 108/2/2 109/2/2 114/2/2
f 109/2/2 104/2/2 115/2/2
f 114/2/2 109/2/2 115/2/2
f 104/1/2 105/1/2 115/1/2
f 105/2/2 100/2/2 116/2/2
f 115/1/2 105/1/2 116/1/2
f 112/2/2 113/2/2 117/2/2
f 110/1/2 111/1/2 117/1/2
f 111/2/2 112/2/2 117/2/2
f 117/2/2 113/2/2 118/2/2
f 108/2/2 114/2/2 119/2/2
f 114/1/2 115/1/2 120/1/2
f 119/2/2 114/2/2 120/2/2
f 115/2/2 116/2/2 121/2/2
f 120/1/2 115/1/2 121/1/2
f 116/2/2 100/2/2 122/2/2
f 121/2/2 116/2/2 122/2/2
f 100/1/2 110/1/2 122/1/2
f 117/1/2 118/1/2 122/1/2
f 110/1/2 117/1/2 122/1/2
f 118/2/2 113/2/2 123/2/2
f 122/1/2 118/1/2 123/1/2
f 123/2/2 113/2/2 124/2/2
f 131/2/3 126/2/3 125/2/3
f 132/1/3 127/1/3 126/1/3
f 132/2/3 126/2/3 131/2/3
f 133/2/3 128/2/3 127/2/3
f 133/1/3 127/1/3 132/1/3
f 134/1/3 129/1/3 128/1/3
f 134/2/3 128/2/3 133/2/3
f 135/2/3 130/2/3 129/2/3
f 135/1/3 129/1/3 134/1/3
f 136/1/3 132/1/3 131/1/3
f 137/2/3 134/2/3 133/2/3
f 137/1/3 132/1/3 136/1/3
f 137/2/3 133/2/3 132/2/3
f 137/2/3 135/2/3 134/2/3
f 138/2/3 135/2/3 137/2/3
f 139/2/3 130/2/3 135/2/3
f 139/2/3 135/2/3 138/2/3
f 140/2/3 138/2/3 137/2/3
f 140/2/3 137/2/3 136/2/3
f 141/2/3 138/2/3 140/2/3
f 142/1/3 139/1/3 138/1/3
f 142/2/3 138/2/3 141/2/3
f 143/1/3 139/1/3 142/1/3
f 144/1/3 139/1/3 143/1/3
f 145/1/3 139/1/3 144/1/3
f 146/1/3 141/1/3 140/1/3
f 146/2/3 142/2/3 141/2/3
f 146/2/3 143/2/3 142/2/3
f 147/2/3 143/2/3 146/2/3
f 148/1/3 144/1/3 143/1/3
f 148/2/3 143/2/3 147/2/3
f 149/2/3 145/2/3 144/2/3
f 149/1/3 144/1/3 148/1/3
f 150/2/3 145/2/3 149/2/3
f 151/2/3 145/2/3 150/2/3
f 152/1/3 147/1/3 146/1/3
f 152/1/3 146/1/3 140/1/3
f 153/2/3 148/2/3 147/2/3
f 153/1/3 147/1/3 152/1/3
f 153/2/3 149/2/3 148/2/3
f 153/2/3 150/2/3 149/2/3
f 154/2/3 150/2/3 153/2/3
f 155/1/3 151/1/3 150/1/3
f 155/2/3 150/2/3 154/2/3
f 156/1/3 151/1/3 155/1/3
f 157/2/3 154/2/3 153/2/3
f 157/2/3 153/2/3 152/2/3
f 158/2/3 154/2/3 157/2/3
f 159/2/3 154/2/3 158/2/3
f 160/1/3 155/1/3 154/1/3
f 160/2/3 154/2/3 159/2/3
f 161/1/3 155/1/3 160/1/3
f 162/2/3 159/2/3 158/2/3
f 162/1/3 158/1/3 157/1/3
f 163/2/3 159/2/3 162/2/3
f 164/2/3 159/2/3 163/2/3
f 165/1/3 160/1/3 159/1/3
f 165/2/3 159/2/3 164/2/3
f 166/1/3 155/1/3 161/1/3
f 166/2/3 161/2/3 160/2/3
f 167/2/3 156/2/3 155/2/3
f 167/1/3 155/1/3 166/1/3
f 168/2/3 156/2/3 167/2/3
f 169/2/3 156/2/3 168/2/3
f 170/1/3 162/1/3 157/1/3
f 170/1/3 163/1/3 162/1/3
f 171/2/3 164/2/3 163/2/3
f 171/1/3 163/1/3 170/1/3
f 172/1/3 165/1/3 164/1/3
f 172/2/3 164/2/3 171/2/3
f 173/2/3 166/2/3 160/2/3
f 173/1/3 165/1/3 172/1/3
f 173/1/3 160/1/3 165/1/3
f 173/2/3 168/2/3 167/2/3
f 173/2/3 167/2/3 166/2/3
f 174/2/3 168/2/3 173/2/3
f 175/1/3 169/1/3 168/1/3
f 175/2/3 168/2/3 174/2/3
f 176/1/3 172/1/3 171/1/3
f 176/2/3 171/2/3 170/2/3
f 177/2/3 174/2/3 173/2/3
f 177/1/3 172/1/3 176/1/3
f 177/2/3 173/2/3 172/2/3
f 178/2/3 174/2/3 177/2/3
f 179/1/3 175/1/3 174/1/3
f 179/2/3 174/2/3 178/2/3
f 180/1/3 175/1/3 179/1/3
f 181/1/3 169/1/3 175/1/3
f 181/1/3 175/1/3 180/1/3
f 182/2/3 176/2/3 170/2/3
f 182/2/3 178/2/3 177/2/3
f 182/2/3 177/2/3 176/2/3
f 183/1/3 180/1/3 179/1/3
f 183/2/3 178/2/3 182/2/3
f 183/1/3 179/1/3 178/1/3
f 184/2/3 181/2/3 180/2/3
f 184/1/3 180/1/3 183/1/3
f 185/2/3 181/2/3 184/2/3
f 186/2/4 187/2/4 192/2/4
f 192/2/4 187/2/4 193/2/4
f 187/1/4 188/1/4 194/1/4
f 193/2/4 187/2/4 194/2/4
f 188/2/4 189/2/4 195/2/4
f 194/1/4 188/1/4 195/1/4
f 189/1/4 190/1/4 196/1/4
f 195/2/4 189/2/4 196/2/4
f 190/2/4 191/2/4 197/2/4
f 196/1/4 190/1/4 197/1/4
f 197/2/4 191/2/4 198/2/4
f 192/1/4 193/1/4 199/1/4
f 193/2/4 194/2/4 200/2/4
f 199/1/4 193/1/4 200/1/4
f 194/2/4 195/2/4 200/2/4
f 195/1/4 196/1/4 201/1/4
f 200/2/4 195/2/4 201/2/4
f 197/1/4 198/1/4 201/1/4
f 196/1/4 197/1/4 201/1/4
f 201/1/4 198/1/4 202/1/4
f 199/2/4 200/2/4 203/2/4
f 200/2/4 201/2/4 203/2/4
f 201/2/4 202/2/4 203/2/4
f 203/2/4 202/2/4 204/2/4
f 204/2/4 202/2/4 205/2/4
f 205/2/4 202/2/4 206/2/4
f 203/1/4 204/1/4 207/1/4
f 204/2/4 205/2/4 208/2/4
f 207/1/4 204/1/4 208/1/4
f 205/1/4 206/1/4 209/1/4
f 208/2/4 205/2/4 209/2/4
f 206/2/4 202/2/4 210/2/4
f 209/1/4 206/1/4 210/1/4
f 210/2/4 202/2/4 211/2/4
f 211/2/4 202/2/4 212/2/4
f 207/2/4 208/2/4 213/2/4
f 213/2/4 208/2/4 214/2/4
f 208/1/4 209/1/4 215/1/4
f 214/2/4 208/2/4 215/2/4
f 209/2/4 210/2/4 216/2/4
f 215/1/4 209/1/4 216/1/4
f 210/2/4 211/2/4 216/2/4
f 216/2/4 211/2/4 217/2/4
f 217/2/4 211/2/4 218/2/4
f 211/1/4 212/1/4 219/1/4
f 218/2/4 211/2/4 219/2/4
f 219/1/4 212/1/4 220/1/4
f 213/1/4 214/1/4 221/1/4
f 214/2/4 215/2/4 221/2/4
f 215/2/4 216/2/4 221/2/4
f 216/2/4 217/2/4 221/2/4
f 221/2/4 217/2/4 222/2/4
f 222/2/4 217/2/4 223/2/4
f 217/1/4 218/1/4 224/1/4
f 223/2/4 217/2/4 224/2/4
f 224/1/4 218/1/4 225/1/4
f 219/2/4 220/2/4 226/2/4
f 225/1/4 218/1/4 226/1/4
f 218/2/4 219/2/4 226/2/4
f 226/2/4 220/2/4 227/2/4
f 213/1/4 221/1/4 228/1/4
f 221/1/4 222/1/4 228/1/4
f 222/2/4 223/2/4 229/2/4
f 228/1/4 222/1/4 229/1/4
f 224/1/4 225/1/4 230/1/4
f 229/2/4 223/2/4 230/2/4
f 223/1/4 224/1/4 230/1/4
f 225/2/4 226/2/4 231/2/4
f 230/1/4 225/1/4 231/1/4
f 227/2/4 220/2/4 232/2/4
f 226/1/4 227/1/4 232/1/4
f 232/2/4 220/2/4 233/2/4
f 228/2/4 229/2/4 234/2/4
f 229/2/4 230/2/4 234/2/4
f 230/2/4 231/2/4 234/2/4
f 231/2/4 226/2/4 235/2/4
f 234/2/4 231/2/4 235/2/4
f 232/1/4 233/1/4 236/1/4
f 235/2/4 226/2/4 236/2/4
f 226/1/4 232/1/4 236/1/4
f 236/1/4 233/1/4 237/1/4
f 228/2/4 234/2/4 238/2/4
f 234/1/4 235/1/4 239/1/4
f 238/2/4 234/2/4 239/2/4
f 239/1/4 235/1/4 240/1/4
f 235/2/4 236/2/4 241/2/4
f 240/1/4 235/1/4 241/1/4
f 236/2/4 237/2/4 241/2/4
f 241/2/4 237/2/4 242/2/4
f 242/2/4 237/2/4 243/2/4
f 228/2/4 238/2/4 244/2/4
f 239/1/4 240/1/4 245/1/4
f 244/2/4 238/2/4 245/2/4
f 238/1/4 239/1/4 245/1/4
f 240/2/4 241/2/4 246/2/4
f 245/1/4 240/1/4 246/1/4
f 241/2/4 242/2/4 246/2/4
f 242/1/4 243/1/4 247/1/4
f 246/2/4 242/2/4 247/2/4
f 243/2/4 237/2/4 248/2/4
f 247/1/4 243/1/4 248/1/4
f 248/2/4 237/2/4 249/2/4
f 258/2/5 251/2/5 250/2/5
f 259/1/5 252/1/5 251/1/5
f 259/2/5 251/2/5 258/2/5
f 260/2/5 253/2/5 252/2/5
f 260/1/5 252/1/5 259/1/5
f 261/1/5 254/1/5 253/1/5
f 261/2/5 253/2/5 260/2/5
f 262/2/5 255/2/5 254/2/5
f 262/1/5 254/1/5 261/1/5
f 263/1/5 256/1/5 255/1/5
f 263/2/5 255/2/5 262/2/5
f 264/2/5 257/2/5 256/2/5
f 264/1/5 256/1/5 263/1/5
f 265/2/5 257/2/5 264/2/5
f 266/1/5 263/1/5 262/1/5
f 266/1/5 259/1/5 258/1/5
f 266/1/5 265/1/5 264/1/5
f 266/1/5 264/1/5 263/1/5
f 266/1/5 262/1/5 261/1/5
f 266/1/5 261/1/5 260/1/5
f 266/1/5 260/1/5 259/1/5
f 267/1/5 265/1/5 266/1/5
f 268/1/5 265/1/5 267/1/5
f 269/1/5 265/1/5 268/1/5
f 270/1/5 265/1/5 269/1/5
f 271/1/5 265/1/5 270/1/5
f 272/2/5 267/2/5 266/2/5
f 273/1/5 268/1/5 267/1/5
f 273/2/5 267/2/5 272/2/5
f 274/1/5 273/1/5 272/1/5
f 275/1/5 268/1/5 273/1/5
f 275/1/5 273/1/5 274/1/5
f 276/2/5 275/2/5 274/2/5
f 277/1/5 268/1/5 275/1/5
f 277/2/5 275/2/5 276/2/5
f 278/1/5 270/1/5 269/1/5
f 278/2/5 271/2/5 270/2/5
f 279/2/5 271/2/5 278/2/5
f 280/2/5 269/2/5 268/2/5
f 280/1/5 268/1/5 277/1/5
f 280/1/5 277/1/5 276/1/5
f 281/1/5 279/1/5 278/1/5
f 281/2/5 269/2/5 280/2/5
f 281/1/5 278/1/5 269/1/5
f 282/1/5 279/1/5 281/1/5
f 283/1/5 279/1/5 282/1/5
f 284/1/5 280/1/5 276/1/5
f 284/1/5 281/1/5 280/1/5
f 284/1/5 282/1/5 281/1/5
f 285/1/5 282/1/5 284/1/5
f 286/2/5 283/2/5 282/2/5
f 286/1/5 282/1/5 285/1/5
f 287/2/5 283/2/5 286/2/5
f 288/1/5 286/1/5 285/1/5
f 288/1/5 287/1/5 286/1/5
f 289/1/5 287/1/5 288/1/5
f 290/1/5 287/1/5 289/1/5
f 291/1/5 287/1/5 290/1/5
f 292/1/5 287/1/5 291/1/5
f 293/1/5 287/1/5 292/1/5
f 294/2/5 285/2/5 284/2/5
f 295/1/5 288/1/5 285/1/5
f 295/2/5 285/2/5 294/2/5
f 296/2/5 289/2/5 288/2/5
f 296/1/5 288/1/5 295/1/5
f 297/1/5 290/1/5 289/1/5
f 297/2/5 289/2/5 296/2/5
f 298/2/5 291/2/5 290/2/5
f 298/1/5 290/1/5 297/1/5
f 299/1/5 292/1/5 291/1/5
f 299/2/5 291/2/5 298/2/5
f 300/2/5 293/2/5 292/2/5
f 300/1/5 292/1/5 299/1/5
f 301/2/5 293/2/5 300/2/5
f 302/2/6 303/2/6 310/2/6
f 303/1/6 304/1/6 311/1/6
f 310/2/6 303/2/6 311/2/6
f 304/2/6 305/2/6 312/2/6
f 311/1/6 304/1/6 312/1/6
f 305/1/6 306/1/6 313/1/6
f 312/2/6 305/2/6 313/2/6
f 306/2/6 307/2/6 314/2/6
f 313/1/6 306/1/6 314/1/6
f 307/1/6 308/1/6 315/1/6
f 314/2/6 307/2/6 315/2/6
f 308/2/6 309/2/6 316/2/6
f 315/1/6 308/1/6 316/1/6
f 316/2/6 309/2/6 317/2/6
f 314/1/6 315/1/6 318/1/6
f 310/1/6 311/1/6 318/1/6
f 316/1/6 317/1/6 318/1/6
f 315/1/6 316/1/6 318/1/6
f 313/1/6 314/1/6 318/1/6
f 312/1/6 313/1/6 318/1/6
f 311/1/6 312/1/6 318/1/6
f 318/1/6 317/1/6 319/1/6
f 318/2/6 319/2/6 320/2/6
f 319/1/6 317/1/6 321/1/6
f 320/2/6 319/2/6 321/2/6
f 321/1/6 317/1/6 322/1/6
f 322/1/6 317/1/6 323/1/6
f 323/1/6 317/1/6 324/1/6
f 324/1/6 317/1/6 325/1/6
f 320/1/6 321/1/6 326/1/6
f 321/1/6 322/1/6 326/1/6
f 326/1/6 322/1/6 327/1/6
f 326/2/6 327/2/6 328/2/6
f 327/1/6 322/1/6 329/1/6
f 328/2/6 327/2/6 329/2/6
f 324/2/6 325/2/6 330/2/6
f 323/1/6 324/1/6 330/1/6
f 330/2/6 325/2/6 331/2/6
f 328/1/6 329/1/6 332/1/6
f 329/1/6 322/1/6 333/1/6
f 332/1/6 329/1/6 333/1/6
f 332/2/6 333/2/6 334/2/6
f 333/1/6 322/1/6 335/1/6
f 334/2/6 333/2/6 335/2/6
f 322/2/6 323/2/6 336/2/6
f 335/1/6 322/1/6 336/1/6
f 323/1/6 330/1/6 337/1/6
f 336/2/6 323/2/6 337/2/6
f 330/1/6 331/1/6 337/1/6
f 334/1/6 335/1/6 338/1/6
f 337/1/6 331/1/6 338/1/6
f 336/1/6 337/1/6 338/1/6
f 335/1/6 336/1/6 338/1/6
f 338/1/6 331/1/6 339/1/6
f 334/1/6 338/1/6 340/1/6
f 340/1/6 338/1/6 341/1/6
f 341/1/6 338/1/6 342/1/6
f 342/1/6 338/1/6 343/1/6
f 343/1/6 338/1/6 344/1/6
f 344/1/6 338/1/6 345/1/6
f 345/1/6 338/1/6 346/1/6
f 338/2/6 339/2/6 347/2/6
f 346/1/6 338/1/6 347/1/6
f 340/2/6 341/2/6 348/2/6
f 341/1/6 342/1/6 349/1/6
f 348/2/6 341/2/6 349/2/6
f 342/2/6 343/2/6 350/2/6
f 349/1/6 342/1/6 350/1/6
f 343/1/6 344/1/6 351/1/6
f 350/2/6 343/2/6 351/2/6
f 344/2/6 345/2/6 352/2/6
f 351/1/6 344/1/6 352/1/6
f 345/1/6 346/1/6 353/1/6
f 352/2/6 345/2/6 353/2/6
f 346/2/6 347/2/6 354/2/6
f 353/1/6 346/1/6 354/1/6
f 347/2/6 339/2/6 355/2/6
f 354/2/6 347/2/6 355/2/6
