# MagicaVoxel @ Ephtracy

# group
o 

# material
mtllib pineapplemiddle.mtl
usemtl palette

# normals
vn -1 0 0
vn 1 0 0
vn 0 0 1
vn 0 0 -1
vn 0 -1 0
vn 0 1 0

# texcoords
vt 0.373047 0.5
vt 0.744141 0.5
vt 0.771484 0.5
vt 0.857422 0.5

# verts
v 0.1 2.1 -0.5
v 0.1 2.1 -0.6
v 0.1 2.3 -0.5
v 0.1 2.3 -0.6
v 0.2 2 -0.5
v 0.2 2 -0.6
v 0.2 2.1 -0.5
v 0.2 2.1 -0.6
v 0.2 2.5 -0.5
v 0.2 2.5 -0.6
v 0.2 2.6 -0.4
v 0.2 2.6 -0.5
v 0.2 2.6 -0.6
v 0.2 2.6 -0.7
v 0.2 2.7 -0.4
v 0.2 2.7 -0.5
v 0.2 2.7 -0.6
v 0.2 2.7 -0.7
v 0.2 2.8 -0.5
v 0.2 2.8 -0.6
v 0.3 2 -0.4
v 0.3 2 -0.5
v 0.3 2.2 -0.4
v 0.3 2.2 -0.5
v 0.3 2.2 -0.6
v 0.3 2.5 -0.4
v 0.3 2.5 -0.5
v 0.3 2.5 -0.6
v 0.3 2.5 -0.7
v 0.3 2.6 -0.4
v 0.3 2.6 -0.5
v 0.3 2.6 -0.6
v 0.3 2.6 -0.7
v 0.3 2.7 -0.4
v 0.3 2.7 -0.5
v 0.3 2.7 -0.6
v 0.3 2.7 -0.7
v 0.3 2.8 -0.4
v 0.3 2.8 -0.5
v 0.3 2.8 -0.6
v 0.3 2.8 -0.7
v 0.4 2 -0.3
v 0.4 2 -0.4
v 0.4 2 -0.6
v 0.4 2 -0.7
v 0.4 2.1 -0.2
v 0.4 2.1 -0.3
v 0.4 2.2 -0.2
v 0.4 2.2 -0.4
v 0.4 2.2 -0.6
v 0.4 2.2 -0.7
v 0.4 2.6 -0.4
v 0.4 2.6 -0.5
v 0.4 2.6 -0.6
v 0.4 2.6 -0.7
v 0.4 2.7 -0.4
v 0.4 2.7 -0.5
v 0.4 2.7 -0.6
v 0.4 2.7 -0.7
v 0.5 2.2 -0.6
v 0.5 2.2 -0.7
v 0.5 2.2 -0.8
v 0.5 2.3 -0.6
v 0.5 2.3 -0.8
v 0.2 2.2 -0.5
v 0.2 2.2 -0.6
v 0.2 2.3 -0.5
v 0.2 2.3 -0.6
v 0.3 2.6 -0.4
v 0.3 2.6 -0.5
v 0.3 2.6 -0.6
v 0.3 2.6 -0.7
v 0.3 2.7 -0.4
v 0.3 2.7 -0.5
v 0.3 2.7 -0.6
v 0.3 2.7 -0.7
v 0.4 2 -0.5
v 0.4 2 -0.6
v 0.4 2.1 -0.4
v 0.4 2.1 -0.5
v 0.4 2.2 -0.4
v 0.4 2.2 -0.5
v 0.4 2.2 -0.6
v 0.4 2.5 -0.4
v 0.4 2.5 -0.5
v 0.4 2.5 -0.6
v 0.4 2.5 -0.7
v 0.4 2.6 -0.4
v 0.4 2.6 -0.5
v 0.4 2.6 -0.6
v 0.4 2.6 -0.7
v 0.4 2.7 -0.4
v 0.4 2.7 -0.5
v 0.4 2.7 -0.6
v 0.4 2.7 -0.7
v 0.4 2.8 -0.4
v 0.4 2.8 -0.5
v 0.4 2.8 -0.6
v 0.4 2.8 -0.7
v 0.5 2 -0.3
v 0.5 2 -0.5
v 0.5 2 -0.6
v 0.5 2 -0.7
v 0.5 2.1 -0.2
v 0.5 2.1 -0.3
v 0.5 2.1 -0.4
v 0.5 2.1 -0.5
v 0.5 2.1 -0.6
v 0.5 2.1 -0.7
v 0.5 2.2 -0.2
v 0.5 2.2 -0.4
v 0.5 2.5 -0.5
v 0.5 2.5 -0.6
v 0.5 2.6 -0.4
v 0.5 2.6 -0.5
v 0.5 2.6 -0.6
v 0.5 2.6 -0.7
v 0.5 2.7 -0.4
v 0.5 2.7 -0.5
v 0.5 2.7 -0.6
v 0.5 2.7 -0.7
v 0.5 2.8 -0.5
v 0.5 2.8 -0.6
v 0.6 2.1 -0.6
v 0.6 2.1 -0.7
v 0.6 2.2 -0.7
v 0.6 2.2 -0.8
v 0.6 2.3 -0.6
v 0.6 2.3 -0.8
v 0.4 2.1 -0.2
v 0.4 2.2 -0.2
v 0.5 2.1 -0.2
v 0.5 2.2 -0.2
v 0.4 2 -0.3
v 0.4 2.1 -0.3
v 0.5 2 -0.3
v 0.5 2.1 -0.3
v 0.2 2.6 -0.4
v 0.2 2.7 -0.4
v 0.3 2 -0.4
v 0.3 2.2 -0.4
v 0.3 2.5 -0.4
v 0.3 2.6 -0.4
v 0.3 2.7 -0.4
v 0.3 2.8 -0.4
v 0.4 2 -0.4
v 0.4 2.2 -0.4
v 0.4 2.5 -0.4
v 0.4 2.6 -0.4
v 0.4 2.7 -0.4
v 0.4 2.8 -0.4
v 0.5 2.6 -0.4
v 0.5 2.7 -0.4
v 0.1 2.1 -0.5
v 0.1 2.3 -0.5
v 0.2 2 -0.5
v 0.2 2.1 -0.5
v 0.2 2.2 -0.5
v 0.2 2.3 -0.5
v 0.2 2.5 -0.5
v 0.2 2.6 -0.5
v 0.2 2.7 -0.5
v 0.2 2.8 -0.5
v 0.3 2 -0.5
v 0.3 2.2 -0.5
v 0.3 2.5 -0.5
v 0.3 2.6 -0.5
v 0.3 2.7 -0.5
v 0.3 2.8 -0.5
v 0.4 2.2 -0.5
v 0.4 2.5 -0.5
v 0.4 2.6 -0.5
v 0.4 2.7 -0.5
v 0.4 2.8 -0.5
v 0.5 2.5 -0.5
v 0.5 2.6 -0.5
v 0.5 2.7 -0.5
v 0.5 2.8 -0.5
v 0.2 2.6 -0.6
v 0.2 2.7 -0.6
v 0.3 2.6 -0.6
v 0.3 2.7 -0.6
v 0.4 2 -0.6
v 0.4 2.2 -0.6
v 0.4 2.6 -0.6
v 0.4 2.7 -0.6
v 0.5 2 -0.6
v 0.5 2.1 -0.6
v 0.5 2.2 -0.6
v 0.5 2.3 -0.6
v 0.5 2.6 -0.6
v 0.5 2.7 -0.6
v 0.6 2.1 -0.6
v 0.6 2.3 -0.6
v 0.4 2.1 -0.4
v 0.4 2.2 -0.4
v 0.5 2.1 -0.4
v 0.5 2.2 -0.4
v 0.2 2.6 -0.5
v 0.2 2.7 -0.5
v 0.3 2.6 -0.5
v 0.3 2.7 -0.5
v 0.4 2 -0.5
v 0.4 2.1 -0.5
v 0.4 2.6 -0.5
v 0.4 2.7 -0.5
v 0.5 2 -0.5
v 0.5 2.1 -0.5
v 0.5 2.6 -0.5
v 0.5 2.7 -0.5
v 0.1 2.1 -0.6
v 0.1 2.3 -0.6
v 0.2 2 -0.6
v 0.2 2.1 -0.6
v 0.2 2.2 -0.6
v 0.2 2.3 -0.6
v 0.2 2.5 -0.6
v 0.2 2.6 -0.6
v 0.2 2.7 -0.6
v 0.2 2.8 -0.6
v 0.3 2.2 -0.6
v 0.3 2.5 -0.6
v 0.3 2.6 -0.6
v 0.3 2.7 -0.6
v 0.3 2.8 -0.6
v 0.4 2 -0.6
v 0.4 2.2 -0.6
v 0.4 2.5 -0.6
v 0.4 2.6 -0.6
v 0.4 2.7 -0.6
v 0.4 2.8 -0.6
v 0.5 2.5 -0.6
v 0.5 2.6 -0.6
v 0.5 2.7 -0.6
v 0.5 2.8 -0.6
v 0.2 2.6 -0.7
v 0.2 2.7 -0.7
v 0.3 2.5 -0.7
v 0.3 2.6 -0.7
v 0.3 2.7 -0.7
v 0.3 2.8 -0.7
v 0.4 2 -0.7
v 0.4 2.2 -0.7
v 0.4 2.5 -0.7
v 0.4 2.6 -0.7
v 0.4 2.7 -0.7
v 0.4 2.8 -0.7
v 0.5 2 -0.7
v 0.5 2.1 -0.7
v 0.5 2.2 -0.7
v 0.5 2.6 -0.7
v 0.5 2.7 -0.7
v 0.6 2.1 -0.7
v 0.6 2.2 -0.7
v 0.5 2.2 -0.8
v 0.5 2.3 -0.8
v 0.6 2.2 -0.8
v 0.6 2.3 -0.8
v 0.4 2 -0.3
v 0.5 2 -0.3
v 0.3 2 -0.4
v 0.4 2 -0.4
v 0.2 2 -0.5
v 0.3 2 -0.5
v 0.4 2 -0.5
v 0.5 2 -0.5
v 0.2 2 -0.6
v 0.4 2 -0.6
v 0.5 2 -0.6
v 0.4 2 -0.7
v 0.5 2 -0.7
v 0.4 2.1 -0.2
v 0.5 2.1 -0.2
v 0.4 2.1 -0.3
v 0.5 2.1 -0.3
v 0.1 2.1 -0.5
v 0.2 2.1 -0.5
v 0.1 2.1 -0.6
v 0.2 2.1 -0.6
v 0.5 2.1 -0.6
v 0.6 2.1 -0.6
v 0.5 2.1 -0.7
v 0.6 2.1 -0.7
v 0.5 2.2 -0.7
v 0.6 2.2 -0.7
v 0.5 2.2 -0.8
v 0.6 2.2 -0.8
v 0.3 2.5 -0.4
v 0.4 2.5 -0.4
v 0.2 2.5 -0.5
v 0.3 2.5 -0.5
v 0.4 2.5 -0.5
v 0.5 2.5 -0.5
v 0.2 2.5 -0.6
v 0.3 2.5 -0.6
v 0.4 2.5 -0.6
v 0.5 2.5 -0.6
v 0.3 2.5 -0.7
v 0.4 2.5 -0.7
v 0.2 2.6 -0.4
v 0.3 2.6 -0.4
v 0.4 2.6 -0.4
v 0.5 2.6 -0.4
v 0.2 2.6 -0.5
v 0.3 2.6 -0.5
v 0.4 2.6 -0.5
v 0.5 2.6 -0.5
v 0.2 2.6 -0.6
v 0.3 2.6 -0.6
v 0.4 2.6 -0.6
v 0.5 2.6 -0.6
v 0.2 2.6 -0.7
v 0.3 2.6 -0.7
v 0.4 2.6 -0.7
v 0.5 2.6 -0.7
v 0.3 2.7 -0.4
v 0.4 2.7 -0.4
v 0.2 2.7 -0.5
v 0.3 2.7 -0.5
v 0.4 2.7 -0.5
v 0.5 2.7 -0.5
v 0.2 2.7 -0.6
v 0.3 2.7 -0.6
v 0.4 2.7 -0.6
v 0.5 2.7 -0.6
v 0.3 2.7 -0.7
v 0.4 2.7 -0.7
v 0.4 2.1 -0.4
v 0.5 2.1 -0.4
v 0.4 2.1 -0.5
v 0.5 2.1 -0.5
v 0.4 2.2 -0.2
v 0.5 2.2 -0.2
v 0.3 2.2 -0.4
v 0.4 2.2 -0.4
v 0.5 2.2 -0.4
v 0.2 2.2 -0.5
v 0.3 2.2 -0.5
v 0.4 2.2 -0.5
v 0.2 2.2 -0.6
v 0.3 2.2 -0.6
v 0.4 2.2 -0.6
v 0.5 2.2 -0.6
v 0.4 2.2 -0.7
v 0.5 2.2 -0.7
v 0.1 2.3 -0.5
v 0.2 2.3 -0.5
v 0.1 2.3 -0.6
v 0.2 2.3 -0.6
v 0.5 2.3 -0.6
v 0.6 2.3 -0.6
v 0.5 2.3 -0.8
v 0.6 2.3 -0.8
v 0.3 2.6 -0.4
v 0.4 2.6 -0.4
v 0.2 2.6 -0.5
v 0.3 2.6 -0.5
v 0.4 2.6 -0.5
v 0.5 2.6 -0.5
v 0.2 2.6 -0.6
v 0.3 2.6 -0.6
v 0.4 2.6 -0.6
v 0.5 2.6 -0.6
v 0.3 2.6 -0.7
v 0.4 2.6 -0.7
v 0.2 2.7 -0.4
v 0.3 2.7 -0.4
v 0.4 2.7 -0.4
v 0.5 2.7 -0.4
v 0.2 2.7 -0.5
v 0.3 2.7 -0.5
v 0.4 2.7 -0.5
v 0.5 2.7 -0.5
v 0.2 2.7 -0.6
v 0.3 2.7 -0.6
v 0.4 2.7 -0.6
v 0.5 2.7 -0.6
v 0.2 2.7 -0.7
v 0.3 2.7 -0.7
v 0.4 2.7 -0.7
v 0.5 2.7 -0.7
v 0.3 2.8 -0.4
v 0.4 2.8 -0.4
v 0.2 2.8 -0.5
v 0.3 2.8 -0.5
v 0.4 2.8 -0.5
v 0.5 2.8 -0.5
v 0.2 2.8 -0.6
v 0.3 2.8 -0.6
v 0.4 2.8 -0.6
v 0.5 2.8 -0.6
v 0.3 2.8 -0.7
v 0.4 2.8 -0.7

# faces
f 3/2/1 2/2/1 1/2/1
f 4/2/1 2/2/1 3/2/1
f 7/2/1 6/2/1 5/2/1
f 8/2/1 6/2/1 7/2/1
f 12/3/1 10/3/1 9/3/1
f 13/3/1 10/3/1 12/3/1
f 15/3/1 12/3/1 11/3/1
f 16/3/1 12/3/1 15/3/1
f 17/3/1 14/3/1 13/3/1
f 18/3/1 14/3/1 17/3/1
f 19/3/1 17/3/1 16/3/1
f 20/3/1 17/3/1 19/3/1
f 23/2/1 22/2/1 21/2/1
f 24/2/1 22/2/1 23/2/1
f 27/2/1 25/2/1 24/2/1
f 28/2/1 25/2/1 27/2/1
f 30/3/1 27/3/1 26/3/1
f 31/3/1 27/3/1 30/3/1
f 32/3/1 29/3/1 28/3/1
f 33/3/1 29/3/1 32/3/1
f 35/1/1 32/1/1 31/1/1
f 36/1/1 32/1/1 35/1/1
f 38/3/1 35/3/1 34/3/1
f 39/3/1 35/3/1 38/3/1
f 40/3/1 37/3/1 36/3/1
f 41/3/1 37/3/1 40/3/1
f 47/2/1 43/2/1 42/2/1
f 48/2/1 47/2/1 46/2/1
f 49/2/1 43/2/1 47/2/1
f 49/2/1 47/2/1 48/2/1
f 50/2/1 45/2/1 44/2/1
f 51/2/1 45/2/1 50/2/1
f 56/3/1 53/3/1 52/3/1
f 57/3/1 53/3/1 56/3/1
f 58/3/1 55/3/1 54/3/1
f 59/3/1 55/3/1 58/3/1
f 63/2/1 61/2/1 60/2/1
f 63/2/1 62/2/1 61/2/1
f 64/2/1 62/2/1 63/2/1
f 65/2/2 66/2/2 67/2/2
f 67/2/2 66/2/2 68/2/2
f 69/3/2 70/3/2 73/3/2
f 73/3/2 70/3/2 74/3/2
f 71/3/2 72/3/2 75/3/2
f 75/3/2 72/3/2 76/3/2
f 77/2/2 78/2/2 80/2/2
f 79/2/2 80/2/2 81/2/2
f 80/2/2 78/2/2 82/2/2
f 81/2/2 80/2/2 82/2/2
f 82/2/2 78/2/2 83/2/2
f 82/2/2 83/2/2 85/2/2
f 85/2/2 83/2/2 86/2/2
f 84/3/2 85/3/2 88/3/2
f 88/3/2 85/3/2 89/3/2
f 86/3/2 87/3/2 90/3/2
f 90/3/2 87/3/2 91/3/2
f 89/1/2 90/1/2 93/1/2
f 93/1/2 90/1/2 94/1/2
f 92/3/2 93/3/2 96/3/2
f 96/3/2 93/3/2 97/3/2
f 94/3/2 95/3/2 98/3/2
f 98/3/2 95/3/2 99/3/2
f 100/2/2 101/2/2 105/2/2
f 105/2/2 101/2/2 106/2/2
f 106/2/2 101/2/2 107/2/2
f 102/2/2 103/2/2 108/2/2
f 108/2/2 103/2/2 109/2/2
f 104/2/2 105/2/2 110/2/2
f 105/2/2 106/2/2 110/2/2
f 110/2/2 106/2/2 111/2/2
f 112/1/2 113/1/2 115/1/2
f 115/1/2 113/1/2 116/1/2
f 114/3/2 115/3/2 118/3/2
f 118/3/2 115/3/2 119/3/2
f 116/3/2 117/3/2 120/3/2
f 120/3/2 117/3/2 121/3/2
f 119/3/2 120/3/2 122/3/2
f 122/3/2 120/3/2 123/3/2
f 124/2/2 125/2/2 126/2/2
f 124/2/2 126/2/2 128/2/2
f 126/2/2 127/2/2 128/2/2
f 128/2/2 127/2/2 129/2/2
f 132/2/3 131/2/3 130/2/3
f 133/2/3 131/2/3 132/2/3
f 136/2/3 135/2/3 134/2/3
f 137/2/3 135/2/3 136/2/3
f 143/3/3 139/3/3 138/3/3
f 144/3/3 139/3/3 143/3/3
f 146/2/3 141/2/3 140/2/3
f 147/2/3 141/2/3 146/2/3
f 148/3/3 143/3/3 142/3/3
f 149/3/3 143/3/3 148/3/3
f 150/3/3 145/3/3 144/3/3
f 151/3/3 145/3/3 150/3/3
f 152/3/3 150/3/3 149/3/3
f 153/3/3 150/3/3 152/3/3
f 157/2/3 155/2/3 154/2/3
f 158/2/3 155/2/3 157/2/3
f 159/2/3 155/2/3 158/2/3
f 164/2/3 157/2/3 156/2/3
f 164/2/3 158/2/3 157/2/3
f 165/2/3 158/2/3 164/2/3
f 166/3/3 161/3/3 160/3/3
f 167/3/3 161/3/3 166/3/3
f 168/3/3 163/3/3 162/3/3
f 169/3/3 163/3/3 168/3/3
f 170/2/3 166/2/3 165/2/3
f 171/2/3 166/2/3 170/2/3
f 172/1/3 168/1/3 167/1/3
f 173/1/3 168/1/3 172/1/3
f 175/1/3 172/1/3 171/1/3
f 176/1/3 172/1/3 175/1/3
f 177/3/3 174/3/3 173/3/3
f 178/3/3 174/3/3 177/3/3
f 181/3/3 180/3/3 179/3/3
f 182/3/3 180/3/3 181/3/3
f 187/2/3 184/2/3 183/2/3
f 188/2/3 184/2/3 187/2/3
f 189/2/3 184/2/3 188/2/3
f 191/3/3 186/3/3 185/3/3
f 192/3/3 186/3/3 191/3/3
f 193/2/3 190/2/3 189/2/3
f 193/2/3 189/2/3 188/2/3
f 194/2/3 190/2/3 193/2/3
f 195/2/4 196/2/4 197/2/4
f 197/2/4 196/2/4 198/2/4
f 199/3/4 200/3/4 201/3/4
f 201/3/4 200/3/4 202/3/4
f 203/2/4 204/2/4 207/2/4
f 207/2/4 204/2/4 208/2/4
f 205/3/4 206/3/4 209/3/4
f 209/3/4 206/3/4 210/3/4
f 211/2/4 212/2/4 214/2/4
f 214/2/4 212/2/4 215/2/4
f 215/2/4 212/2/4 216/2/4
f 213/2/4 214/2/4 221/2/4
f 214/2/4 215/2/4 221/2/4
f 217/3/4 218/3/4 222/3/4
f 222/3/4 218/3/4 223/3/4
f 219/3/4 220/3/4 224/3/4
f 224/3/4 220/3/4 225/3/4
f 213/2/4 221/2/4 226/2/4
f 221/2/4 222/2/4 226/2/4
f 226/2/4 222/2/4 227/2/4
f 227/2/4 222/2/4 228/2/4
f 223/1/4 224/1/4 229/1/4
f 229/1/4 224/1/4 230/1/4
f 228/1/4 229/1/4 232/1/4
f 232/1/4 229/1/4 233/1/4
f 230/3/4 231/3/4 234/3/4
f 234/3/4 231/3/4 235/3/4
f 236/3/4 237/3/4 239/3/4
f 239/3/4 237/3/4 240/3/4
f 238/3/4 239/3/4 244/3/4
f 244/3/4 239/3/4 245/3/4
f 240/3/4 241/3/4 246/3/4
f 246/3/4 241/3/4 247/3/4
f 242/2/4 243/2/4 248/2/4
f 248/2/4 243/2/4 249/2/4
f 249/2/4 243/2/4 250/2/4
f 245/3/4 246/3/4 251/3/4
f 251/3/4 246/3/4 252/3/4
f 249/2/4 250/2/4 253/2/4
f 253/2/4 250/2/4 254/2/4
f 255/2/4 256/2/4 257/2/4
f 257/2/4 256/2/4 258/2/4
f 262/2/5 260/2/5 259/2/5
f 264/2/5 262/2/5 261/2/5
f 265/2/5 260/2/5 262/2/5
f 265/2/5 262/2/5 264/2/5
f 266/2/5 260/2/5 265/2/5
f 267/2/5 264/2/5 263/2/5
f 267/2/5 265/2/5 264/2/5
f 268/2/5 265/2/5 267/2/5
f 270/2/5 269/2/5 268/2/5
f 271/2/5 269/2/5 270/2/5
f 274/2/5 273/2/5 272/2/5
f 275/2/5 273/2/5 274/2/5
f 278/2/5 277/2/5 276/2/5
f 279/2/5 277/2/5 278/2/5
f 282/2/5 281/2/5 280/2/5
f 283/2/5 281/2/5 282/2/5
f 286/2/5 285/2/5 284/2/5
f 287/2/5 285/2/5 286/2/5
f 291/3/5 289/3/5 288/3/5
f 292/3/5 289/3/5 291/3/5
f 294/3/5 291/3/5 290/3/5
f 295/3/5 291/3/5 294/3/5
f 296/1/5 293/1/5 292/1/5
f 297/1/5 293/1/5 296/1/5
f 298/3/5 296/3/5 295/3/5
f 299/3/5 296/3/5 298/3/5
f 304/3/5 301/3/5 300/3/5
f 305/3/5 301/3/5 304/3/5
f 306/3/5 303/3/5 302/3/5
f 307/3/5 303/3/5 306/3/5
f 312/3/5 309/3/5 308/3/5
f 313/3/5 309/3/5 312/3/5
f 314/3/5 311/3/5 310/3/5
f 315/3/5 311/3/5 314/3/5
f 319/3/5 317/3/5 316/3/5
f 320/3/5 317/3/5 319/3/5
f 322/3/5 319/3/5 318/3/5
f 323/3/5 319/3/5 322/3/5
f 324/3/5 321/3/5 320/3/5
f 325/3/5 321/3/5 324/3/5
f 326/3/5 324/3/5 323/3/5
f 327/3/5 324/3/5 326/3/5
f 328/2/6 329/2/6 330/2/6
f 330/2/6 329/2/6 331/2/6
f 332/2/6 333/2/6 335/2/6
f 335/2/6 333/2/6 336/2/6
f 334/2/6 335/2/6 338/2/6
f 338/2/6 335/2/6 339/2/6
f 337/2/6 338/2/6 340/2/6
f 340/2/6 338/2/6 341/2/6
f 342/2/6 343/2/6 344/2/6
f 344/2/6 343/2/6 345/2/6
f 346/2/6 347/2/6 348/2/6
f 348/2/6 347/2/6 349/2/6
f 350/2/6 351/2/6 352/2/6
f 352/2/6 351/2/6 353/2/6
f 354/3/6 355/3/6 357/3/6
f 357/3/6 355/3/6 358/3/6
f 356/3/6 357/3/6 360/3/6
f 360/3/6 357/3/6 361/3/6
f 358/1/6 359/1/6 362/1/6
f 362/1/6 359/1/6 363/1/6
f 361/3/6 362/3/6 364/3/6
f 364/3/6 362/3/6 365/3/6
f 366/3/6 367/3/6 370/3/6
f 370/3/6 367/3/6 371/3/6
f 368/3/6 369/3/6 372/3/6
f 372/3/6 369/3/6 373/3/6
f 374/3/6 375/3/6 378/3/6
f 378/3/6 375/3/6 379/3/6
f 376/3/6 377/3/6 380/3/6
f 380/3/6 377/3/6 381/3/6
f 382/3/6 383/3/6 385/3/6
f 385/3/6 383/3/6 386/3/6
f 384/3/6 385/3/6 388/3/6
f 386/3/6 387/3/6 388/3/6
f 385/3/6 386/3/6 388/3/6
f 388/3/6 387/3/6 389/3/6
f 389/3/6 387/3/6 390/3/6
f 390/3/6 387/3/6 391/3/6
f 389/3/6 390/3/6 392/3/6
f 392/3/6 390/3/6 393/3/6
